PathFileType	4	(X/Y/Z)	OpenSim_Sub06_EMGStiffKnee_Accel.trc
DataRate	CameraRate	NumFrames	NumMarkers	Units	OrigDataRate	OrigDataStartFrame	OrigNumFrames
100	100	38	8	m	100	680	5432
Frame#	Time	torso_imu_offset_imu	pelvis_imu_offset_imu	tibia_r_imu_offset_imu	femur_r_imu_offset_imu	tibia_l_imu_offset_imu	femur_l_imu_offset_imu	toes_r_imu_offset_imu	toes_l_imu_offset_imu
				X1	Y1	Z1	X2	Y2	Z2	X3	Y3	Z3	X4	Y4	Z4	X5	Y5	Z5	X6	Y6	Z6	X7	Y7	Z7	X8		Y8	Z8	

680	6.79000000	12.35718200	-3.20307000	8.31255600	10.56061800	0.30346800	7.52307800	4.06456900	6.29641600	0.18636600	6.76860800	1.11559600	3.13521800	10.62237300	3.07858100	7.11434100	10.82735700	1.95941900	-2.28156900	3.49612100	-0.89399400	8.58975300	4.21006100	2.35547900	14.23662500
681	6.80000000	10.79744600	-3.45957600	6.93982500	8.72109100	-2.92280000	6.03647000	4.44773000	6.91028200	-3.14019300	3.54904500	0.07987300	1.85797800	10.07881500	1.02907400	8.56918300	11.70641800	0.64432300	-2.78890500	4.45048500	-2.98919600	8.42080100	5.09111700	1.93985400	14.00539400
682	6.81000000	9.86128200	-2.93628000	6.12337200	7.04448300	-4.75180600	5.41268100	4.24106500	7.61782800	-2.71590600	2.46954300	0.54993300	1.19201500	9.52966500	-0.96602300	8.41788500	12.39306000	-0.55270800	-3.10807300	3.11124600	-4.56689500	8.46255400	5.67877900	1.10389600	13.35225400
683	6.82000000	9.32199000	-2.32072500	5.69455200	6.56497100	-5.24463000	5.06469500	5.48683800	8.31885700	-3.30686000	2.17234600	1.38540000	1.54187900	9.90986700	-2.14959400	5.45938300	12.46680500	-1.08275600	-2.77600700	3.72301900	-6.32775000	7.60911900	6.74851600	-1.14728600	13.05243700
684	6.83000000	8.78789200	-2.18311600	5.21304800	6.94492500	-4.84453300	4.74088600	8.71123400	7.72441600	-3.63486000	2.60430500	1.58260700	1.70479100	11.89415500	-1.84824100	2.31377500	12.35336500	-0.97609600	-1.76380500	5.62586900	-4.60958300	7.41741400	6.99594700	-3.11614500	14.61153600
685	6.84000000	8.28259300	-1.67769800	4.94767800	7.40733600	-4.03578400	4.73175800	11.49237000	6.00757500	-2.09901900	4.70276500	1.37701500	1.10258800	13.04497900	-2.62269000	0.92299100	12.48481700	-0.49636500	-0.52662900	4.62586200	-4.48132500	7.56708800	7.37835400	-0.63117500	13.92296500
686	6.85000000	8.11166800	-0.74597300	4.67258300	7.66394500	-3.02074900	4.85506000	12.78009400	5.89441300	0.96314300	8.01220300	1.01114100	-0.36161200	10.94180100	-4.08862300	0.72678100	11.33125400	-0.03874700	0.77732600	4.81781700	-3.65611900	7.81469100	8.69449700	2.29000700	14.02241200
687	6.86000000	7.78781000	-0.04942100	4.38061700	7.24944600	-1.53103300	4.92308500	10.94246800	6.61993000	1.92919300	10.94535800	0.83820000	-2.70140300	7.98232400	-6.04426200	1.05900500	9.61459700	0.13565400	2.70669600	5.03496700	-2.07001800	8.54643300	9.57099900	1.03477200	12.17873400
688	6.87000000	7.47351700	-0.29468400	4.19793000	6.32598100	-0.00845300	4.86865100	7.90699800	6.25250600	2.85387300	12.98251800	-0.08229700	-4.73284800	6.18153500	-7.80307600	1.57087800	8.90211800	-0.55145400	3.32941800	4.30489900	-1.51133600	8.83000000	9.70455600	2.24984100	12.31431800
689	6.88000000	7.65283200	-1.22777900	3.99092600	5.71229900	1.42640200	5.00620300	6.48361900	3.91181000	4.00794000	12.38351300	-1.24671900	-5.03813000	5.19383900	-9.02122000	1.24503100	8.97483200	-1.70597200	3.14199700	4.65375200	-0.52020600	9.34025100	3.65127900	3.89343300	19.44675500
690	6.89000000	7.92315700	-2.10941000	4.02111200	5.74968900	2.45792200	5.63441200	7.48687000	1.22377900	4.31201900	10.40717400	-1.99379500	-2.73246700	4.21023200	-9.94113100	0.96733300	9.47347500	-2.67971600	2.47631600	4.20075600	-1.13732400	9.23723900	13.26003800	-0.99919300	25.41371700
691	6.90000000	8.19578100	-2.64457000	4.27815800	6.49423000	3.14104400	6.59354800	9.44504200	-0.53054000	2.83180900	9.15134200	-2.37564700	0.08088900	3.01376900	-9.93069900	1.04385700	10.11472500	-3.31320400	1.18451400	4.48235100	-1.48343800	9.10435800	-2.31307200	1.25193800	18.18748400
692	6.91000000	8.64029700	-2.91895500	4.53482000	7.94157200	3.52663600	7.15150900	11.28657600	-1.60805500	1.77072300	9.16275200	-3.13466000	0.99450900	2.89289100	-9.45793400	2.46834900	11.05667400	-3.82531200	-0.22875800	4.53334400	-2.32138800	8.78882300	-8.35137300	4.70321800	13.65488200
693	6.92000000	8.68521400	-2.78052800	4.78756300	9.42574500	3.94217800	6.61550300	12.20776100	-1.83984800	1.24318700	9.37061900	-3.76423600	0.79414300	3.19027700	-9.15291300	4.44039000	11.60233400	-4.66049100	-1.27159900	5.19576700	-2.77236800	8.14740000	-1.11110100	2.26076200	13.75215400
694	6.93000000	8.37066400	-2.36641500	5.05226000	9.80064700	3.87113100	5.71047100	11.27478000	-0.66173200	0.66400100	9.54784400	-3.15423400	0.43350800	2.99673000	-8.43542600	5.23343000	10.99275400	-4.81850600	-1.64918700	4.86973000	-3.38065700	8.24356100	-0.94963000	5.74736000	14.55698300
695	6.94000000	8.75853900	-2.36616400	5.07005100	8.31763700	3.66041300	5.25168600	9.60556600	1.00472300	0.26689600	9.43056200	-2.56372800	-0.04257900	2.53714000	-7.39267900	4.90893600	10.00658900	-3.80543700	-1.62767700	4.64633100	-2.86035100	8.55438000	-2.21854600	6.71586900	13.60704500
696	6.95000000	9.22451300	-2.45358800	4.87731100	7.02344800	3.62813300	5.48988800	9.31160300	2.20210400	0.79943000	8.98327400	-2.41791900	-0.36668000	2.35784300	-5.92961400	4.52515800	9.67736800	-2.27869800	-1.52915000	4.99041100	-2.87512800	8.47031200	-1.84563700	5.44334800	12.99606000
697	6.96000000	9.06343000	-2.44130600	5.11147500	6.98590300	3.01425200	5.71692200	9.63346300	2.76777700	0.89384200	8.65273000	-2.39389800	-0.38196000	2.72475500	-4.29714100	4.55398800	9.84839500	-0.48316100	-1.53399200	4.43903400	-2.84309300	8.51715800	-0.78620200	3.85252300	12.92893700
698	6.97000000	9.40383600	-2.16886700	5.24036000	7.19194800	2.62981000	5.75372800	10.27121500	2.69204000	1.41325300	8.70980700	-2.07613500	-0.43572300	3.61818300	-2.95053000	4.63875400	9.91213600	1.09229200	-1.24040200	5.05975300	-2.39136100	8.72465100	0.05682700	3.40490800	13.23171000
699	6.98000000	9.78292900	-1.77755200	5.09034000	7.66933400	2.35762700	5.84804600	10.75519500	2.24739600	1.45987200	9.09272200	-1.52650300	-0.70093400	4.96528100	-1.68670400	4.44865400	9.80711500	1.77077500	-0.72079900	4.93301900	-2.44670500	8.66214000	0.60307800	2.70032400	13.15009600
700	6.99000000	9.36365800	-1.53242100	5.33684900	8.16045100	2.03069900	5.74438700	10.70281300	2.01388400	1.48941100	9.49388900	-0.79369000	-1.07928800	6.30431300	-0.61885500	4.07339300	9.53454600	1.99246800	-0.02037600	4.97093600	-2.35247500	8.52542500	1.25014300	1.82357600	13.15226300
701	7	8.93506200	-1.37939900	5.89413100	8.35046600	1.85030400	5.66208600	10.32033600	1.81270100	1.68360600	9.77512500	0.00288200	-1.28542900	6.86408600	-0.08343100	3.88469700	9.42260700	1.95232200	0.42594200	4.69702500	-2.59419100	8.63697300	2.29092900	1.14945400	13.04822000
702	7.01000000	9.01880800	-1.25443500	5.99900700	8.03183000	1.61338300	5.59485900	10.02636100	1.36062000	1.52495700	9.97938200	0.90189500	-1.38205300	6.86021600	-0.00395200	4.01016100	9.45652300	1.93466300	0.73449600	4.91244800	-2.31408400	8.56384400	3.28729600	1.09102900	12.71883900
703	7.02000000	8.88587900	-1.24855300	5.78426400	7.69435900	1.39971200	5.55615800	10.08367500	0.89046800	1.41042600	9.77293400	1.39554200	-1.53399500	6.77079000	-0.48027000	3.99819100	9.42226100	1.88704400	0.98974200	4.78901000	-2.26996900	8.69800700	3.96496700	1.86630800	12.07132100
704	7.03000000	8.74344700	-1.40713900	5.73631100	7.65015600	1.45168700	5.46275200	10.32536600	0.36726700	1.38750900	9.31003400	1.46347900	-1.87401300	6.96461800	-1.38584100	3.90244500	9.08083300	1.93827100	1.30351200	4.90103300	-2.53345900	8.50818700	4.14271400	2.40841000	11.08489100
705	7.04000000	8.83996600	-1.52778200	5.84942300	7.72354200	1.59627700	5.35808100	10.25132700	0.13345400	1.51058600	8.98785400	0.77945800	-2.17154600	7.56541700	-3.14799800	2.98477900	8.76656400	2.10673400	1.64657200	5.17625300	-2.24935000	8.43373100	4.30133100	2.90501500	11.17571600
706	7.05000000	8.65535300	-1.65188900	5.79191100	7.84278900	1.80081100	5.26443200	9.94544400	0.01325900	1.26733400	8.89525800	-0.32103700	-2.14995900	8.50774600	-4.79418900	1.95414800	8.35704100	2.13561700	1.93578800	4.81391000	-2.82179900	8.26863700	5.30983200	2.56541400	11.85579700
707	7.06000000	8.43943600	-1.65200000	5.80994200	7.89770500	1.99842900	5.12869200	9.63341600	0.26271600	1.02119100	8.82314300	-1.66761100	-1.86906400	9.33674900	-5.65960900	1.47571100	8.05720300	1.93365300	1.99094800	5.42572500	-2.79712100	7.95046400	6.64696200	3.17574300	13.15310900
708	7.07000000	8.36803800	-1.56855900	5.83038100	7.92431100	2.27059300	4.97300500	9.43880100	0.60434400	0.78690300	8.51957300	-2.92996100	-1.58478100	9.81207400	-5.29015200	1.92587900	8.01429600	1.87093600	1.80268200	5.24020600	-2.47745400	8.00614100	7.26935300	3.26578500	13.66560900
709	7.08000000	8.42851600	-1.43487900	5.78060500	7.91156200	2.39077800	4.78111700	9.37756500	1.18133600	0.74510800	8.11845200	-3.64754800	-1.12776600	9.90849200	-3.88897200	2.86886600	7.95704400	1.89918300	1.55083400	5.30329000	-2.51541500	8.03015500	7.29210500	2.82311900	13.66830800
710	7.09000000	8.49100100	-1.33677700	5.79103600	7.88158100	2.55063400	4.64902300	9.33311300	1.48109400	0.85970300	7.90488800	-3.68897400	-0.65605300	9.37522700	-2.57433300	3.76478800	8.01647300	2.04605600	1.26483000	5.53658500	-2.51439700	7.85996200	7.35694500	1.74999200	13.35612700
711	7.10000000	8.43797200	-1.20945000	5.87478100	7.87217300	2.86674100	4.60410000	9.32369000	1.15715200	0.66542100	8.02685200	-3.27281800	-0.52122000	8.64512700	-1.62255800	4.35769300	8.30024300	2.13809500	1.05619300	5.72826700	-2.31835600	7.74298500	7.68556400	0.98137600	12.99752600
712	7.11000000	8.44798100	-1.18278800	5.92541600	7.87151800	2.94165400	4.62188400	9.40011200	0.69033500	0.60802700	8.33525100	-2.71853000	-0.62169900	8.00907500	-1.32460400	4.45118500	8.58091100	2.50203600	0.88942300	5.90303200	-2.23515200	7.82081300	7.90756200	0.73466700	12.64843000
713	7.12000000	8.44826000	-1.28994400	6.01291600	7.80919400	3.14159100	4.65760100	9.52036600	0.25973500	0.64614100	8.71314300	-1.86732400	-0.84564400	7.85596400	-1.61387000	4.01023600	8.88925400	2.76274300	0.75636200	5.55449100	-2.40323300	7.87094600	8.20225600	0.79623500	12.35445000
714	7.13000000	8.45325000	-1.44549900	6.00123700	7.71667600	3.25065600	4.72867600	9.37760400	0.40692400	0.97206100	9.00501100	-1.07603500	-0.98660200	8.26384300	-2.10356000	3.36486700	9.07328100	3.10586600	0.61013600	5.45638800	-2.62617100	7.74029700	8.85751400	0.69558200	12.25733400
715	7.14000000	8.45747500	-1.63985000	6.05655500	7.66455600	3.32884100	4.65761300	9.30880200	0.78613700	0.66019700	9.06683600	-0.45733400	-0.95625600	9.07946800	-2.69533700	2.87901900	8.91478000	3.52155000	0.42566800	5.20609100	-2.65103500	8.04658600	9.93737200	0.44326800	11.97648300
716	7.15000000	8.55553600	-1.78708400	6.00171100	7.63784500	3.35218800	4.58415800	9.52763800	1.23432600	0.65617900	9.07924100	-0.08321400	-0.96820600	10.18056800	-3.22399000	2.57237000	8.60386800	3.78587400	0.36587400	5.38541200	-2.16813600	8.07069600	10.68134900	0.32251500	11.60745700
717	7.16000000	8.62689100	-1.90066200	6.00624400	7.56239500	3.14619300	4.43271200	9.88683300	1.69183600	0.93565200	9.08911900	0.01852500	-0.99609800	11.26254700	-3.23653700	2.60769100	8.17408400	4.08695000	0.51888000	5.35989900	-2.14205500	8.18326100	11.95538200	0.08275600	11.09869500
